<svg width="103" height="23" viewBox="0 0 103 23" fill="none" xmlns="http://www.w3.org/2000/svg">
<path d="M0.517045 0.545454H5.06818L9.875 12.2727H10.0795L14.8864 0.545454H19.4375V18H15.858V6.6392H15.7131L11.196 17.9148H8.75852L4.24148 6.59659H4.09659V18H0.517045V0.545454ZM24.6513 22.9091C24.1911 22.9091 23.7592 22.8722 23.3558 22.7983C22.9581 22.7301 22.6286 22.642 22.3672 22.5341L23.1854 19.8239C23.6115 19.9545 23.995 20.0256 24.3359 20.0369C24.6825 20.0483 24.9808 19.9688 25.2308 19.7983C25.4865 19.6278 25.6939 19.3381 25.853 18.929L26.0661 18.375L21.37 4.90909H25.1882L27.8984 14.5227H28.0348L30.7706 4.90909H34.6143L29.5263 19.4148C29.282 20.1193 28.9496 20.733 28.5291 21.2557C28.1143 21.7841 27.5888 22.1903 26.9524 22.4744C26.3161 22.7642 25.549 22.9091 24.6513 22.9091Z" fill="black"/>
<path d="M35.0554 3.58807V0.545454H49.3906V3.58807H44.0469V18H40.3991V3.58807H35.0554ZM53.6349 18.2472C52.7997 18.2472 52.0554 18.1023 51.402 17.8125C50.7486 17.517 50.2315 17.0824 49.8509 16.5085C49.4759 15.929 49.2884 15.2074 49.2884 14.3438C49.2884 13.6165 49.4219 13.0057 49.6889 12.5114C49.956 12.017 50.3196 11.6193 50.7798 11.3182C51.2401 11.017 51.7628 10.7898 52.348 10.6364C52.9389 10.483 53.5582 10.375 54.206 10.3125C54.9673 10.233 55.581 10.1591 56.0469 10.0909C56.5128 10.017 56.8509 9.90909 57.0611 9.76705C57.2713 9.625 57.3764 9.41477 57.3764 9.13636V9.08523C57.3764 8.54545 57.206 8.12784 56.8651 7.83239C56.5298 7.53693 56.0526 7.3892 55.4332 7.3892C54.7798 7.3892 54.2599 7.53409 53.8736 7.82386C53.4872 8.10795 53.2315 8.46591 53.1065 8.89773L49.7486 8.625C49.919 7.82955 50.2543 7.14205 50.7543 6.5625C51.2543 5.97727 51.8991 5.52841 52.6889 5.21591C53.4844 4.89773 54.4048 4.73864 55.4503 4.73864C56.1776 4.73864 56.8736 4.82386 57.5384 4.99432C58.2088 5.16477 58.8026 5.42898 59.3196 5.78693C59.8423 6.14489 60.2543 6.60511 60.5554 7.16761C60.8565 7.72443 61.0071 8.39205 61.0071 9.17045V18H57.5639V16.1847H57.4616C57.2514 16.5938 56.9702 16.9545 56.6179 17.267C56.2656 17.5739 55.8423 17.8153 55.348 17.9915C54.8537 18.1619 54.2827 18.2472 53.6349 18.2472ZM54.6747 15.7415C55.2088 15.7415 55.6804 15.6364 56.0895 15.4261C56.4986 15.2102 56.8196 14.9205 57.0526 14.5568C57.2855 14.1932 57.402 13.7812 57.402 13.321V11.9318C57.2884 12.0057 57.1321 12.0739 56.9332 12.1364C56.7401 12.1932 56.5213 12.2472 56.277 12.2983C56.0327 12.3437 55.7884 12.3864 55.544 12.4261C55.2997 12.4602 55.0781 12.4915 54.8793 12.5199C54.4531 12.5824 54.081 12.6818 53.7628 12.8182C53.4446 12.9545 53.1974 13.1392 53.0213 13.3722C52.8452 13.5994 52.7571 13.8835 52.7571 14.2244C52.7571 14.7188 52.9361 15.0966 53.294 15.358C53.6577 15.6136 54.1179 15.7415 54.6747 15.7415ZM74.7159 8.64205L71.392 8.84659C71.3352 8.5625 71.2131 8.30682 71.0256 8.07955C70.8381 7.84659 70.5909 7.66193 70.2841 7.52557C69.983 7.38352 69.6222 7.3125 69.2017 7.3125C68.6392 7.3125 68.1648 7.43182 67.7784 7.67045C67.392 7.90341 67.1989 8.21591 67.1989 8.60795C67.1989 8.92045 67.3239 9.18466 67.5739 9.40057C67.8239 9.61648 68.2528 9.78977 68.8608 9.92045L71.2301 10.3977C72.5028 10.6591 73.4517 11.0795 74.0767 11.6591C74.7017 12.2386 75.0142 13 75.0142 13.9432C75.0142 14.8011 74.7614 15.554 74.2557 16.2017C73.7557 16.8494 73.0682 17.3551 72.1932 17.7188C71.3239 18.0767 70.321 18.2557 69.1847 18.2557C67.4517 18.2557 66.071 17.8949 65.0426 17.1733C64.0199 16.446 63.4205 15.4574 63.2443 14.2074L66.8153 14.0199C66.9233 14.5483 67.1847 14.9517 67.5994 15.2301C68.0142 15.5028 68.5455 15.6392 69.1932 15.6392C69.8295 15.6392 70.3409 15.517 70.7273 15.2727C71.1193 15.0227 71.3182 14.7017 71.3239 14.3097C71.3182 13.9801 71.179 13.7102 70.9062 13.5C70.6335 13.2841 70.2131 13.1193 69.6449 13.0057L67.3778 12.554C66.0994 12.2983 65.1477 11.8551 64.5227 11.2244C63.9034 10.5937 63.5938 9.78977 63.5938 8.8125C63.5938 7.97159 63.821 7.24716 64.2756 6.6392C64.7358 6.03125 65.3807 5.5625 66.2102 5.23295C67.0455 4.90341 68.0227 4.73864 69.142 4.73864C70.7955 4.73864 72.0966 5.08807 73.0455 5.78693C74 6.4858 74.5568 7.4375 74.7159 8.64205ZM80.5902 14.233L80.5987 9.87784H81.1271L85.3203 4.90909H89.4879L83.8544 11.4886H82.9936L80.5902 14.233ZM77.3004 18V0.545454H80.9311V18H77.3004ZM85.4822 18L81.63 12.2983L84.0504 9.73295L89.7351 18H85.4822ZM102.161 8.64205L98.8374 8.84659C98.7805 8.5625 98.6584 8.30682 98.4709 8.07955C98.2834 7.84659 98.0362 7.66193 97.7294 7.52557C97.4283 7.38352 97.0675 7.3125 96.647 7.3125C96.0845 7.3125 95.6101 7.43182 95.2237 7.67045C94.8374 7.90341 94.6442 8.21591 94.6442 8.60795C94.6442 8.92045 94.7692 9.18466 95.0192 9.40057C95.2692 9.61648 95.6982 9.78977 96.3061 9.92045L98.6754 10.3977C99.9482 10.6591 100.897 11.0795 101.522 11.6591C102.147 12.2386 102.46 13 102.46 13.9432C102.46 14.8011 102.207 15.554 101.701 16.2017C101.201 16.8494 100.513 17.3551 99.6385 17.7188C98.7692 18.0767 97.7663 18.2557 96.63 18.2557C94.897 18.2557 93.5163 17.8949 92.4879 17.1733C91.4652 16.446 90.8658 15.4574 90.6896 14.2074L94.2607 14.0199C94.3686 14.5483 94.63 14.9517 95.0447 15.2301C95.4595 15.5028 95.9908 15.6392 96.6385 15.6392C97.2749 15.6392 97.7862 15.517 98.1726 15.2727C98.5646 15.0227 98.7635 14.7017 98.7692 14.3097C98.7635 13.9801 98.6243 13.7102 98.3516 13.5C98.0788 13.2841 97.6584 13.1193 97.0902 13.0057L94.8232 12.554C93.5447 12.2983 92.593 11.8551 91.968 11.2244C91.3487 10.5937 91.0391 9.78977 91.0391 8.8125C91.0391 7.97159 91.2663 7.24716 91.7209 6.6392C92.1811 6.03125 92.826 5.5625 93.6555 5.23295C94.4908 4.90341 95.468 4.73864 96.5874 4.73864C98.2408 4.73864 99.5419 5.08807 100.491 5.78693C101.445 6.4858 102.002 7.4375 102.161 8.64205Z" fill="#13B7F2"/>
</svg>
